<svg viewBox="0 0 512 512" fill="none" xmlns="http://www.w3.org/2000/svg">
  <mask id="mask0_cbud_logo" style="mask-type:alpha" maskUnits="userSpaceOnUse" x="0" y="0" width="512" height="512">
    <circle cx="256" cy="256" r="256" fill="black" />
  </mask>
  <g mask="url(#mask0_cbud_logo)">
    <circle cx="256" cy="256" r="256" fill="black" />
    <path d="M228.5 155.5C246.836 155.333 265.17 155.5 283.5 156C309.815 164.509 322.148 182.676 320.5 210.5C313.833 210.5 307.167 210.5 300.5 210.5C302.867 195.066 297.201 183.899 283.5 177C274.237 175.874 264.904 175.374 255.5 175.5C246.096 175.374 236.763 175.874 227.5 177C219.911 180.255 214.744 185.755 212 193.5C210.863 214.126 210.363 234.793 210.5 255.5C210.667 274.5 210.833 293.5 211 312.5C212.834 324.003 219.334 331.503 230.5 335C248.233 335.959 265.899 335.625 283.5 334C297.182 327.139 302.849 315.973 300.5 300.5C307.5 300.5 314.5 300.5 321.5 300.5C323.269 320.063 316.602 335.896 301.5 348C287.416 355.306 272.416 358.14 256.5 356.5C244.304 357.064 232.304 355.897 220.5 353C202.136 344.776 192.302 330.609 191 310.5C190.055 270.81 190.388 231.143 192 191.5C197.456 172.543 209.623 160.543 228.5 155.5Z" fill="white" />
  </g>
</svg>